<?xml version="1.0" encoding="UTF-8" standalone="no"?>
<!-- Generator: Adobe Illustrator 16.0.0, SVG Export Plug-In . SVG Version: 6.00 Build 0)  -->

<svg
   xmlns:dc="http://purl.org/dc/elements/1.1/"
   xmlns:cc="http://creativecommons.org/ns#"
   xmlns:rdf="http://www.w3.org/1999/02/22-rdf-syntax-ns#"
   xmlns:svg="http://www.w3.org/2000/svg"
   xmlns="http://www.w3.org/2000/svg"
   xmlns:sodipodi="http://sodipodi.sourceforge.net/DTD/sodipodi-0.dtd"
   xmlns:inkscape="http://www.inkscape.org/namespaces/inkscape"
   version="1.1"
   id="Layer_1"
   x="0px"
   y="0px"
   width="2413.293px"
   height="956.462px"
   viewBox="0 0 2413.293 956.462"
   enable-background="new 0 0 2413.293 956.462"
   xml:space="preserve"
   inkscape:version="0.91 r13725"
   sodipodi:docname="hnc-logo-texto-invertido.svg"
   inkscape:export-filename="/home/magnun/Dropbox/hackncast/logos/svg/hnc-logo-texto-invertido.png"
   inkscape:export-xdpi="90"
   inkscape:export-ydpi="90"><metadata
     id="metadata90"><rdf:RDF><cc:Work
         rdf:about=""><dc:format>image/svg+xml</dc:format><dc:type
           rdf:resource="http://purl.org/dc/dcmitype/StillImage" /><dc:title /></cc:Work></rdf:RDF></metadata><defs
     id="defs88" /><sodipodi:namedview
     pagecolor="#ffffff"
     bordercolor="#666666"
     borderopacity="1"
     objecttolerance="10"
     gridtolerance="10"
     guidetolerance="10"
     inkscape:pageopacity="0"
     inkscape:pageshadow="2"
     inkscape:window-width="1600"
     inkscape:window-height="861"
     id="namedview86"
     showgrid="false"
     showguides="false"
     inkscape:guide-bbox="true"
     inkscape:zoom="0.34807213"
     inkscape:cx="1474.0198"
     inkscape:cy="684.66233"
     inkscape:window-x="1600"
     inkscape:window-y="0"
     inkscape:window-maximized="1"
     inkscape:current-layer="Layer_1"><sodipodi:guide
       orientation="0,1"
       position="2177.7096,844.65254"
       id="guide4545" /><sodipodi:guide
       orientation="0,1"
       position="1264.1058,97.680906"
       id="guide4547" /></sodipodi:namedview><g
     id="g12935"><path
       style="fill:#f2f2ea;fill-opacity:1"
       inkscape:connector-curvature="0"
       d="m 805.172,726.333 c 0,72.146 -59.01,131.163 -131.101,131.163 l -483.853,0 C 118.092,857.496 59.1,798.48 59.1,726.333 l 0,-483.775 c 0,-72.174 58.992,-131.163 131.118,-131.163 l 483.854,0 c 72.091,0 131.101,58.989 131.101,131.163 l 0,483.775 z"
       id="path4071" /><path
       d="m 660.122,630.225 c 63.308,-46.616 98.152,-109.231 98.152,-176.348 0,-67.088 -34.845,-129.738 -98.152,-176.351 -61.163,-45.04 -142.152,-69.837 -227.986,-69.837 -85.834,0 -166.827,24.798 -227.986,69.837 -63.311,46.612 -98.173,109.262 -98.173,176.351 0,44.655 15.862,88.325 45.883,126.318 22.727,28.744 53.174,53.8 89.082,73.344 6.376,3.475 10.911,11.919 9.999,19.138 l -14.352,112.686 c -2.732,21.608 7.959,27.092 23.924,12.311 l 100.303,-93.046 c 5.309,-4.941 15.463,-8.086 22.678,-7.253 16.065,1.775 32.323,2.684 48.643,2.684 85.833,0 166.822,-24.802 227.985,-69.834 z"
       id="path4075"
       inkscape:connector-curvature="0"
       style="fill:#369ecd;fill-opacity:1" /><path
       id="path4079"
       d="m 380.995,569.763 c 0,8.079 -6.606,14.686 -14.695,14.686 l -54.258,0 c -8.097,0 -14.699,-6.606 -14.699,-14.686 l 0,-54.275 c 0,-8.093 6.603,-14.692 14.699,-14.692 l 54.258,0 c 8.089,0 14.695,6.599 14.695,14.692 l 0,54.275 z"
       inkscape:connector-curvature="0"
       style="fill:#f2f2ea;fill-opacity:1" /><path
       id="path4081"
       d="m 473.77,569.763 c 0,8.079 -6.62,14.686 -14.72,14.686 l -54.258,0 c -8.079,0 -14.689,-6.606 -14.689,-14.686 l 0,-54.275 c 0,-8.093 6.61,-14.692 14.689,-14.692 l 54.258,0 c 8.1,0 14.72,6.599 14.72,14.692 l 0,54.275 z"
       inkscape:connector-curvature="0"
       style="fill:#f2f2ea;fill-opacity:1" /><path
       id="path4083"
       d="m 566.385,569.763 c 0,8.079 -6.609,14.686 -14.695,14.686 l -54.265,0 c -8.083,0 -14.699,-6.606 -14.699,-14.686 l 0,-54.275 c 0,-8.093 6.616,-14.692 14.699,-14.692 l 54.265,0 c 8.086,0 14.695,6.599 14.695,14.692 l 0,54.275 z"
       inkscape:connector-curvature="0"
       style="fill:#f2f2ea;fill-opacity:1" /><path
       id="path4085"
       d="m 566.929,477.22 c 0,8.072 -6.606,14.699 -14.696,14.699 l -54.268,0 c -8.082,0 -14.709,-6.627 -14.709,-14.699 l 0,-54.275 c 0,-8.065 6.627,-14.699 14.709,-14.699 l 54.268,0 c 8.09,0 14.696,6.634 14.696,14.699 l 0,54.275 z"
       inkscape:connector-curvature="0"
       style="fill:#f2f2ea;fill-opacity:1" /><path
       id="path4087"
       d="m 474.079,384.669 c 0,8.1 -6.61,14.727 -14.686,14.727 l -54.253,0 c -8.11,0 -14.717,-6.627 -14.717,-14.727 l 0,-54.227 c 0,-8.106 6.606,-14.72 14.717,-14.72 l 54.254,0 c 8.075,0 14.686,6.613 14.686,14.72 l 0,54.227 z"
       inkscape:connector-curvature="0"
       style="fill:#f2f2ea;fill-opacity:1" /><path
       d="m 1064.662,464.014 0,-157.492 -136.874,0 0,157.492 -73.461,0 0,-350.912 73.461,0 0,132.12 136.874,0 0,-132.12 73.991,0 0,350.912 -73.991,0 z"
       id="path4089"
       inkscape:connector-curvature="0"
       style="fill:#6b6564" /><path
       d="m 1326.266,464.014 c -2.113,-6.345 -3.695,-15.325 -4.226,-23.253 -16.385,17.968 -43.87,30.121 -78.746,30.121 -59.188,0 -86.666,-29.067 -86.666,-71.341 0,-75.043 50.201,-83.501 119.437,-93.018 34.346,-4.748 43.863,-11.623 43.863,-29.591 0,-16.915 -16.915,-26.948 -43.863,-26.948 -31.188,0 -43.863,15.318 -47.043,38.578 l -63.943,0 c 1.06,-53.91 30.65,-91.428 114.151,-91.428 82.441,0 110.986,36.995 110.986,102.521 l 0,164.359 -63.95,0 z m -4.755,-127.365 c -6.868,6.868 -19.021,10.57 -44.394,15.325 -39.108,7.398 -51.791,18.498 -51.791,40.691 0,19.558 11.623,29.068 33.293,29.068 35.406,0 61.831,-25.896 62.361,-56.546 l 0.531,-28.538 z"
       id="path4091"
       inkscape:connector-curvature="0"
       style="fill:#6b6564" /><path
       d="m 1651.812,369.942 c -7.392,60.249 -56.539,100.939 -119.438,100.939 -70.811,0 -119.437,-47.028 -119.437,-140.047 0,-93.011 48.626,-133.702 121.557,-133.702 67.646,0 113.621,38.578 117.854,99.879 l -69.235,0 c -3.695,-26.948 -23.253,-42.803 -49.148,-42.803 -29.067,0 -52.844,18.498 -52.844,75.043 0,56.545 23.776,84.031 50.731,84.031 26.948,0 48.088,-15.332 50.73,-43.34 l 69.23,0 z"
       id="path4093"
       inkscape:connector-curvature="0"
       style="fill:#6b6564" /><path
       d="m 1828.868,464.014 -57.076,-116.794 -33.3,34.353 0,82.441 -69.229,0 0,-355.144 69.229,0 0,193.957 85.621,-98.827 84.023,0 -87.196,95.654 85.084,164.359 -77.156,0 z"
       id="path4095"
       inkscape:connector-curvature="0"
       style="fill:#6b6564" /><path
       d="m 1920.826,98.836 72.932,0 0,53.896 c 0,59.719 -17.961,88.263 -72.932,99.886 l 0,-153.782 z"
       id="path4097"
       inkscape:connector-curvature="0"
       style="fill:#6b6564" /><path
       d="m 2185.602,464.014 0,-157.492 c 0,-40.161 -11.63,-51.261 -44.393,-51.261 -35.942,0 -53.381,20.087 -53.381,59.725 l 0,149.027 -68.705,0 0,-260.013 65.54,0 0,38.055 c 15.855,-29.068 42.28,-44.923 84.023,-44.923 49.679,0 86.144,30.121 86.144,86.667 l 0,180.214 -69.228,0 z"
       id="path4099"
       inkscape:connector-curvature="0"
       style="fill:#6b6564" /><path
       d="m 2281.263,98.836 72.931,0 0,53.896 c 0,59.719 -17.975,88.263 -72.931,99.886 l 0,-153.782 z"
       id="path4101"
       inkscape:connector-curvature="0"
       style="fill:#6b6564" /><path
       style="fill:#6b6564"
       inkscape:connector-curvature="0"
       id="path4103"
       d="m 1167.721,724.977 c -14.802,79.799 -69.766,132.649 -151.146,132.649 -91.959,0 -162.247,-62.884 -162.247,-183.38 0,-118.914 62.891,-191.308 163.3,-191.308 87.727,0 143.219,56.016 150.094,126.828 l -73.461,0 c -10.04,-39.638 -41.221,-63.421 -76.104,-63.421 -60.777,0 -89.315,47.042 -89.315,123.676 0,77.679 28.538,123.662 85.613,123.662 43.341,0 69.766,-24.843 79.806,-68.706 l 73.46,0 z" /><path
       style="fill:#6b6564"
       inkscape:connector-curvature="0"
       id="path4105"
       d="m 1344.24,845.473 c -2.112,-6.345 -3.695,-15.332 -4.226,-23.259 -16.385,17.975 -43.863,30.127 -78.746,30.127 -59.188,0 -86.673,-29.067 -86.673,-71.348 0,-75.037 50.208,-83.501 119.437,-93.011 34.353,-4.748 43.87,-11.63 43.87,-29.591 0,-16.915 -16.915,-26.948 -43.87,-26.948 -31.181,0 -43.863,15.318 -47.028,38.578 l -63.951,0 c 1.06,-53.91 30.65,-91.429 114.151,-91.429 82.448,0 110.986,36.996 110.986,102.522 l 0,164.359 -63.95,0 z m -4.755,-127.364 c -6.868,6.868 -19.028,10.57 -44.394,15.318 -39.107,7.405 -51.791,18.498 -51.791,40.698 0,19.558 11.623,29.068 33.293,29.068 35.413,0 61.831,-25.902 62.361,-56.553 l 0.531,-28.531 z" /><path
       style="fill:#6b6564"
       inkscape:connector-curvature="0"
       id="path4107"
       d="m 1592.101,664.199 c -3.173,-23.783 -16.915,-34.353 -46.513,-34.353 -28.008,0 -42.803,5.822 -42.803,22.2 0,14.272 14.795,21.663 42.28,29.068 90.898,24.842 120.489,29.591 120.489,90.369 0,46.506 -39.631,80.858 -115.204,80.858 -74.521,0 -122.609,-35.412 -123.669,-90.369 l 70.818,0 c 0,24.306 21.67,38.578 52.32,38.578 25.896,0 47.565,-7.928 47.565,-24.842 0,-19.021 -13.742,-25.366 -41.751,-31.71 -100.945,-22.186 -119.437,-48.088 -119.437,-91.952 0,-39.101 30.121,-73.454 111.51,-73.454 74.514,0 107.276,32.233 110.449,85.607 l -66.054,0 z" /><path
       style="fill:#6b6564"
       inkscape:connector-curvature="0"
       id="path4109"
       d="m 1829.928,674.246 63.943,0 0,73.991 c 0,54.957 -31.703,104.104 -105.164,104.104 -76.104,0 -106.224,-48.625 -106.224,-104.641 l 0,-232.529 67.646,0 0,70.289 143.742,0 0,48.611 -143.742,0 0,106.761 c 0,32.77 11.623,51.791 39.631,51.791 27.485,0 40.168,-18.498 40.168,-50.731 l 0,-67.646 z" /><path
       id="path4115"
       d="m 2010.314,627.665 0,-13.839 c -8.224,10.102 -18.697,15.146 -31.414,15.146 -11.217,0 -20.631,-3.798 -28.235,-11.402 -7.735,-7.728 -11.596,-17.204 -11.596,-28.428 0,-11.217 3.806,-20.631 11.41,-28.235 7.728,-7.728 17.204,-11.595 28.421,-11.595 12.338,0 22.812,5.051 31.414,15.146 l 0,-75.168 7.666,0 0,138.375 -7.666,0 z m -8.601,-61.336 c -6.359,-6.359 -13.963,-9.538 -22.812,-9.538 -8.974,0 -16.578,3.117 -22.812,9.352 -6.358,6.359 -9.538,14.025 -9.538,22.999 0,8.856 3.18,16.46 9.538,22.812 6.358,6.359 13.963,9.538 22.812,9.538 8.974,0 16.577,-3.11 22.812,-9.345 6.358,-6.358 9.537,-14.024 9.537,-23.005 0,-8.85 -3.179,-16.454 -9.537,-22.813 z"
       inkscape:connector-curvature="0"
       style="fill:#f2f2ea;fill-opacity:1" /><path
       id="path4117"
       d="m 2103.25,617.376 c -7.728,7.735 -17.204,11.595 -28.421,11.595 -11.224,0 -20.638,-3.798 -28.235,-11.402 -7.734,-7.728 -11.595,-17.204 -11.595,-28.428 0,-11.093 3.86,-20.5 11.595,-28.235 7.598,-7.852 17.012,-11.781 28.235,-11.781 11.093,0 20.5,3.868 28.235,11.596 7.728,7.728 11.596,17.204 11.596,28.421 0,11.223 -3.806,20.637 -11.41,28.234 z m -5.423,-51.233 c -6.234,-6.358 -13.9,-9.538 -22.998,-9.538 -8.732,0 -16.268,3.248 -22.627,9.724 -6.482,6.482 -9.724,14.093 -9.724,22.812 0,8.856 3.18,16.46 9.538,22.812 6.352,6.359 13.956,9.538 22.812,9.538 8.974,0 16.578,-3.11 22.812,-9.345 6.358,-6.358 9.538,-14.024 9.538,-23.005 0,-9.097 -3.116,-16.763 -9.351,-22.998 z"
       inkscape:connector-curvature="0"
       style="fill:#f2f2ea;fill-opacity:1" /><path
       id="path4119"
       d="m 2124.94,582.04 0,-7.666 39.452,0 0,7.666 -39.452,0 z"
       inkscape:connector-curvature="0"
       style="fill:#f2f2ea;fill-opacity:1" /><path
       id="path4121"
       d="m 2189.827,536.601 c -1.377,0 -2.808,-0.564 -4.301,-1.686 -1.122,-1.122 -1.748,-2.615 -1.872,-4.487 0,-3.365 2.058,-5.423 6.173,-6.173 3.11,0 5.168,2.058 6.166,6.173 0,4.115 -2.057,6.173 -6.166,6.173 z m -3.93,91.064 0,-77.225 7.666,0 0,77.225 -7.666,0 z"
       inkscape:connector-curvature="0"
       style="fill:#f2f2ea;fill-opacity:1" /><path
       id="path4123"
       d="m 2230.587,558.105 0,69.559 -7.666,0 0,-69.559 -10.475,0 0,-7.666 10.475,0 0,-33.851 7.666,0 0,33.851 17.954,0 0,7.666 -17.954,0 z"
       inkscape:connector-curvature="0"
       style="fill:#f2f2ea;fill-opacity:1" /><path
       id="path4127"
       d="m 1962.508,766.411 -8.987,0 20.893,-45.308 -33.974,-73.213 8.602,0 30.059,63.654 29.681,-63.654 8.78,0 -55.054,118.521 z"
       inkscape:connector-curvature="0"
       style="fill:#f2f2ea;fill-opacity:1" /><path
       id="path4129"
       d="m 2090.396,717.786 c -8.072,8.079 -17.968,12.118 -29.681,12.118 -11.719,0 -21.546,-3.978 -29.48,-11.918 -8.079,-8.065 -12.104,-17.968 -12.104,-29.681 0,-11.582 4.025,-21.408 12.104,-29.48 7.935,-8.203 17.762,-12.304 29.48,-12.304 11.589,0 21.409,4.04 29.488,12.104 8.064,8.072 12.104,17.968 12.104,29.68 0,11.713 -3.97,21.546 -11.911,29.481 z m -5.665,-53.498 c -6.51,-6.641 -14.513,-9.964 -24.017,-9.964 -9.118,0 -16.983,3.399 -23.617,10.157 -6.771,6.771 -10.157,14.72 -10.157,23.824 0,9.249 3.316,17.19 9.95,23.811 6.642,6.647 14.59,9.964 23.824,9.964 9.373,0 17.314,-3.241 23.824,-9.751 6.641,-6.641 9.958,-14.651 9.958,-24.024 10e-4,-9.504 -3.254,-17.507 -9.765,-24.017 z"
       inkscape:connector-curvature="0"
       style="fill:#f2f2ea;fill-opacity:1" /><path
       id="path4131"
       d="m 2173.759,721.501 c -5.34,5.726 -12.82,8.588 -22.455,8.588 -9.496,0 -16.853,-2.794 -22.055,-8.396 -5.217,-5.595 -7.811,-13.405 -7.811,-23.438 l 0,-50.365 8.003,0 0,50.366 c 0,7.687 1.686,13.611 5.071,17.775 3.523,4.17 9.111,6.249 16.791,6.249 14.961,0 22.455,-8.01 22.455,-24.023 l 0,-50.367 7.804,0 0,50.366 c 0,9.902 -2.594,17.658 -7.803,23.245 z"
       inkscape:connector-curvature="0"
       style="fill:#f2f2ea;fill-opacity:1" /><path
       id="path4133"
       d="m 2244.246,659.801 c -2.085,-1.562 -4.294,-2.801 -6.634,-3.702 -2.354,-0.916 -4.823,-1.383 -7.425,-1.383 -2.202,0 -4.294,0.695 -6.249,2.058 -1.947,1.363 -3.646,3.062 -5.071,5.079 -1.438,2.016 -2.573,4.26 -3.42,6.737 -0.854,2.47 -1.267,4.748 -1.267,6.833 l 0,53.099 -8.003,0 0,-80.632 8.003,0 0,10.935 c 1.687,-2.987 3.902,-5.732 6.641,-8.203 2.726,-2.471 5.726,-3.709 8.98,-3.709 4.033,0 7.35,0.454 9.951,1.37 2.615,0.908 5.533,2.532 8.788,4.879 l -4.294,6.639 z"
       inkscape:connector-curvature="0"
       style="fill:#f2f2ea;fill-opacity:1" /><path
       id="path4137"
       d="m 2062.67,845.982 c -4.982,4.246 -10.97,6.358 -17.947,6.358 -11.968,0 -20.948,-5.423 -26.928,-16.268 l 6.544,-3.923 c 2.12,3.86 4.673,6.854 7.666,8.974 3.117,2.367 7.356,3.551 12.718,3.551 11.712,0 17.575,-4.982 17.575,-14.96 0,-4.356 -2.058,-8.162 -6.173,-11.403 -1.245,-0.75 -3.021,-1.59 -5.326,-2.525 -2.312,-0.936 -5.141,-2.023 -8.513,-3.269 -6.234,-2.251 -10.722,-4.494 -13.46,-6.737 -3.991,-3.241 -5.987,-7.914 -5.987,-14.025 0,-5.237 1.996,-9.724 5.987,-13.46 3.86,-3.861 8.911,-5.801 15.146,-5.801 8.602,0 15.896,2.993 21.876,8.98 l -5.608,4.858 c -4.239,-4.232 -9.662,-6.359 -16.268,-6.359 -8.974,0 -13.461,3.93 -13.461,11.781 0,3.496 1.369,6.359 4.108,8.602 2.243,1.748 5.801,3.434 10.659,5.051 4.239,1.494 7.729,2.897 10.475,4.205 2.738,1.314 4.796,2.464 6.173,3.461 5.354,4.115 8.037,9.662 8.037,16.641 10e-4,6.737 -2.428,12.16 -7.293,16.268 z"
       inkscape:connector-curvature="0"
       style="fill:#f2f2ea;fill-opacity:1" /><path
       id="path4139"
       d="m 2088.104,810.646 c 0,10.467 2.801,18.759 8.409,24.87 5.863,6.234 13.901,9.345 24.127,9.345 5.237,0 9.972,-0.867 14.211,-2.614 5.36,-2.244 10.157,-6.793 14.396,-13.653 l 6.923,3.179 c -4.865,9.229 -12.345,15.463 -22.44,18.704 -3.867,1.246 -8.23,1.865 -13.089,1.865 -11.596,0 -21.133,-3.799 -28.613,-11.402 -7.604,-7.604 -11.403,-17.143 -11.403,-28.614 0,-11.588 3.737,-21.126 11.218,-28.606 7.604,-7.604 17.203,-11.41 28.799,-11.41 11.465,0 20.94,3.558 28.421,10.66 7.604,7.109 11.41,16.337 11.41,27.678 l -72.369,0 z m 52.726,-24.499 c -5.855,-4.239 -12.593,-6.358 -20.19,-6.358 -15.958,0 -26.432,7.852 -31.414,23.562 l 62.643,0 c -1.253,-7.109 -4.928,-12.841 -11.039,-17.204 z"
       inkscape:connector-curvature="0"
       style="fill:#f2f2ea;fill-opacity:1" /><path
       id="path4141"
       d="m 2180.289,850.848 0,-117.235 7.48,0 0,117.234 -7.48,0 z"
       inkscape:connector-curvature="0"
       style="fill:#f2f2ea;fill-opacity:1" /><path
       id="path4143"
       d="m 2243.489,741.279 -5.051,-0.564 c -6.984,0 -10.474,4.115 -10.474,12.346 l 0,20.562 18.325,0 0,7.666 -18.325,0 0,69.559 -7.666,0 0,-69.559 -10.467,0 0,-7.666 10.467,0 0,-22.806 c 0,-11.843 5.987,-17.768 17.954,-17.768 2.738,0 4.486,0.131 5.236,0.378 1.493,0 3.18,0.434 5.052,1.308 l 0,7.666 -5.051,-1.122 z"
       inkscape:connector-curvature="0"
       style="fill:#f2f2ea;fill-opacity:1" /><path
       style="fill:#f2f2ea;fill-opacity:1"
       inkscape:connector-curvature="0"
       d="m 2007.114,838.357 c 0,6.441 -5.264,11.706 -11.719,11.706 l -43.237,0 c -6.455,0 -11.719,-5.265 -11.719,-11.706 l 0,-43.264 c 0,-6.448 5.264,-11.706 11.719,-11.706 l 43.237,0 c 6.455,0 11.719,5.257 11.719,11.706 l 0,43.264 z"
       id="path4145" /></g></svg>